<svg width="1448" height="1024" xmlns="http://www.w3.org/2000/svg" xmlns:xlink="http://www.w3.org/1999/xlink" onload="init()" id="TFYE9WHCG4xqTxivB"><script type="application/javascript"> <![CDATA[ 
function init(){}
 ]]> </script><g id="mqqWXBRCbnLNb6w9Z" type="layer"><title>mqqWXBRCbnLNb6w9Z</title><path d="M172.01820413502105 364.2215150896138C169.65992776783355 350.60307636891065 167.30983011158355 337.3194459978169 167.9499057951773 323.5078004900044C168.5567173186148 311.089984327895 157.9937290373648 307.1947816911763 154.1349643889273 295.26906147633264C149.9942173186148 282.6189455095359 145.59669534595855 267.1879762712545 139.01246683033355 255.781360060317C132.8410190764273 244.89862385426233 138.4287876311148 234.42941609059042 128.3314975920523 214.8074525896136C127.00978128345855 212.24614277516048 126.4191440764273 203.3030580583636 124.9163364592398 201.74017658863704C112.6273960295523 188.9291566911761 124.2465366545523 176.48198261891048 138.44642679127105 188.19130268726985C148.0988315764273 196.1512025896136 155.6001743498648 209.99013081226985 159.55165140064605 229.4761537614886C160.81166116627105 235.48833027516073 163.93251077564605 234.75986042652792 164.4065708342398 228.64796772633233C165.9246372404898 208.97690144215267 167.9105991545523 192.48453083668392 165.4932407561148 176.0843538347308C163.47779886158355 162.85728779469173 166.5325473967398 149.39012470875423 167.18470804127105 136.10718861256282C168.2444614592398 126.33594837818782 164.21363870533355 106.11788502369564 177.7577671233023 105.83440724049251C188.16712991627105 105.61661091480892 186.9693149748648 121.63030567799251 189.1591343108023 136.709041029555C191.1864780608023 150.46493855152767 190.4823764983023 164.47903767262142 192.9774936858023 178.22508564625423C193.88026468189605 182.9820131364886 193.4492954436148 187.90092793141048 193.61500589283355 192.74026814137142C193.8238071623648 199.37405720387142 199.0075229826773 198.1368440691058 199.4809116545523 192.15545979176204C200.2647251311148 181.9207796159808 199.57911722095855 171.51933613453548 200.03016702564605 161.29521504078548C200.8679966154898 141.04227772389095 203.44288675220855 120.88702717457454 207.2278598967398 101.03799763355892C210.11024515064605 85.78615894947689 221.9124912443961 91.37665882740657 223.36445657642736 96.91919270191829C228.12812845142741 113.86986103687923 223.31892434986486 132.61159077320735 224.95497171314616 150.0263246599261C226.33711282642741 164.85736408863704 223.91621438892736 179.76803913746517 223.69807474048986 194.56920185719173C223.6183017912711 197.15619221363704 227.67701761158366 199.58977070484798 228.64448587330241 194.86065998707454C231.91944925220866 179.40301838551204 232.71589700611491 163.39769306812923 237.13087503345872 148.11375752125423C240.12037698658372 137.96344319019954 238.44703714283372 112.59221974049251 252.42732278736503 113.95742359791439C261.25929300220884 114.83432331715267 257.2231601897088 126.06463947926204 258.8000644865838 140.49305287037532C259.2998203459588 145.32536640797298 256.71492044361503 149.2946809831683 256.62580911549003 167.01005879078548C256.5267490568963 181.27597370777767 250.74086038502128 194.99432697926204 248.84040872486503 209.16754475269954C249.81654397877128 211.3339418474261 252.62171976002128 214.39329853687923 255.22779886158378 211.4217561784808C258.34980813892753 204.3232454362933 258.9801181975213 196.41617146168392 262.64210550220884 189.5039094987933C268.3559116545526 178.90516987476985 271.1062778654901 160.66850605641048 275.1007847014276 156.87076130543392C280.27021829517764 151.91974201832454 285.0808262053337 155.2016634050433 285.96760599049 162.5478548112933C287.5783847990837 175.58230915699642 283.10780374439634 188.2149690691058 281.50709573658384 200.9216341081683C280.4725498381464 208.90060749684017 272.14332620533384 222.01257649098048 270.61842386158384 241.4827913347311C268.71058694752134 264.876086622817 262.59291116627134 288.025958448989 251.35084573658378 302.5251039568013C245.43684427173997 310.144183546645 242.68531839283372 322.0071596208638 247.64668313892747 332.5167116228169C251.42121927174003 340.4691042009419 246.02034036548997 347.08269062672315 247.92445413502122 355.0036806169575L250.04463235767753 363.7842592302388C224.46858255298991 369.62440815602 197.6349643889273 369.7202943864888 172.01820413502105 364.2215150896138Z" name="http://lore-mbp.local:3000/icons/black_kitty_1024x1024.jpg" id="wMCTFdKRsJ4uxWefL" type="complex_path" stroke="#000000" stroke-width="0" stroke-opacity="1" fill="#7d7575" fill-opacity="1" stroke-linejoin="miter" stroke-linecap="butt" opacity="1"/><path d="M991.320782437863 369.7311353221652C993.6790588050505 356.11269660146206 996.0291564613005 342.8290662303683 995.3890197425505 329.0174207225558C994.782208219113 316.59960456044644 1005.345196500363 312.7044019237277 1009.2039611488005 300.77868170888394C1013.344708219113 288.12856574208706 1017.7422912269255 272.6975965038058 1024.3265197425505 261.29096503407925C1030.4979064613005 250.40822882802456 1024.910137906613 239.9390210643527 1035.0074279456755 220.31705756337598C1036.3292052894255 217.75574774892286 1036.9197814613005 208.81266303212598 1038.422589078488 207.24978156239942C1050.7115295081755 194.43876166493848 1039.0923888831755 181.99158759267286 1024.892559781613 193.70090766103223C1015.2400939613005 201.66080756337598 1007.738751187863 215.49973578603223 1003.787335172238 234.98575873525115C1002.527325406613 240.997935248923 999.406475797238 240.2694654002902 998.932354703488 234.15757270009487C997.414288297238 214.48650641591504 995.4283263831755 197.9941358104463 997.845684781613 181.59395880849317C999.8611877113005 168.3668927684541 996.806378140988 154.8997296825166 996.154278531613 141.61680121571973C995.094464078488 131.84556098134473 999.1253478675505 111.62749762685254 985.5811584144255 111.34401984364942C975.171856656613 111.12622351796583 976.369610562863 127.13991828114942 974.1797912269255 142.21865363271192C972.1524474769255 155.97454352529004 972.8565490394255 169.9886426463838 970.3614318519255 183.7346906200166C969.458721890988 188.49161811025098 969.889630094113 193.41053290517286 969.7239806800505 198.2498731151338C969.515118375363 204.8836621776338 964.3314635902068 203.64644904286817 963.8580749183318 197.66506476552442C963.0742614417693 187.43038458974317 963.7598693519255 177.02894110829786 963.308819547238 166.80482001454786C962.4709899573943 146.55189032704786 959.8960998206755 126.39663977773145 956.1111266761443 106.54761023671583C953.228741422238 91.2957715526338 941.426495328488 96.88627143056348 939.9745299964568 102.4288053050752C935.2108581214568 119.37947364003614 940.0200622230193 138.12120337636426 938.384014859738 155.53592963368848C937.0018737464568 170.36696906239942 939.4227721839568 185.27764411122754 939.6409118323943 200.0788068309541C939.720684781613 202.66579718739942 935.6619689613005 205.09937567861036 934.6945006995818 200.37026496083692C931.4195373206755 184.91262335927442 930.6230895667693 168.9072980418916 926.2081115394255 153.6233624950166C923.2186095863005 143.47304816396192 924.8919494300505 118.10183234364942 910.9116637855193 119.4670362010713C902.0796935706755 120.34393592030958 906.1158263831755 131.57425208241895 904.5389220863005 146.00266547353223C904.0391662269255 150.83497138173536 906.6240661292693 154.80428595693067 906.7131774573943 172.51966376454786C906.812237515988 186.78557868154004 912.598126187863 200.50393195302442 914.4985778480193 214.67714972646192C913.522442594113 216.84354682118848 910.717266812863 219.9029035106416 908.1111877113005 216.93136115224317C904.9891784339568 209.83285041005567 904.358868375363 201.9257764354463 900.6968810706755 195.01351447255567C894.9830749183318 184.41477484853223 892.2327087073943 166.17811103017286 888.2382018714568 162.3803662791963C883.0687682777068 157.42934699208692 878.2581603675505 160.71126837880567 877.3713805823943 168.05745978505567C875.7606017738005 181.0919141307588 880.231182828488 193.72457404286817 881.8318908363005 206.43123908193067C882.866436734738 214.41021247060254 891.1956603675505 227.52218146474326 892.7205627113005 246.9923963084933C894.628399625363 270.3857068553683 900.746075406613 293.5355786815402 911.9881408363005 308.0347241893527C917.9021423011443 315.65380377919644 920.6536681800505 327.5167798534152 915.6923034339568 338.0263318553683C911.9177673011443 345.9787244334933 917.3186462073943 352.59231085927456 915.414532437863 360.51330084950894L913.2943542152068 369.2938794627902C938.8704040198943 375.13402838857144 965.7039611488005 375.2299146190402 991.320782437863 369.7311353221652Z" name="http://lore-mbp.local:3000/icons/black_kitty_1024x1024.jpg" id="v5B9TKHajm7xay53J" type="complex_path" stroke="#000000" stroke-width="0" stroke-opacity="1" fill="#7d7575" fill-opacity="1" stroke-linejoin="miter" stroke-linecap="butt" opacity="1"/><path d="M467.1204026359294 238.48734959595765C467.1204026359294 151.88622960084047 515.5599778312419 81.73943242066468 575.3607590812419 81.73943242066468C635.1615403312419 81.73943242066468 683.6008103507731 151.88622960084047 683.6008103507731 238.48734959595765C683.6008103507731 325.0883627795514 635.1615403312419 395.235243883067 575.3607590812419 395.235243883067C515.5599778312419 395.235243883067 467.1204026359294 325.0883627795514 467.1204026359294 238.48734959595765Z" name="http://lore-mbp.local:3000/icons/black_kitty_1024x1024.jpg" id="cnGXL9YEQoJjK7ed2" type="complex_path" stroke="#000000" stroke-width="0" stroke-opacity="1" fill="#7d7575" fill-opacity="1" stroke-linejoin="miter" stroke-linecap="butt" opacity="1"/><path d="M167.09608459472656,141.12220764160156 187.09300231933594,141.90928649902344 186.699462890625,263.7909240722656 252.4212188720703,264.461181640625 251.63412475585938,284.6917724609375 167.09608459472656,284.6917724609375 167.09608459472656,141.12220764160156Z" id="THPto5Bt3CrZHkWG5" type="simple_path" name="http://lore-mbp.local:3000/icons/black_kitty_1024x1024.jpg" stroke="#000000" stroke-width="0" stroke-opacity="1" fill="#000000" fill-opacity="1" stroke-linejoin="miter" stroke-linecap="butt" opacity="1"/><path d="M1001.8034460843267 313.4692670747382L964.6671850979985 256.02226084915225C1016.6230566800298 254.79275340286318 1017.1896460354985 161.54873484817568 964.7675879300298 161.00289744583193C944.4926245511235 160.4727613374335 924.7360632718267 160.01376170364443 910.5826514065923 160.9862653657538L907.8575537503423 313.3170453950507L924.1324560940923 312.93942088333193L926.0781348050298 254.83364695755068L943.387277871436 255.89542979446475L980.3718359769048 313.45858592239443ZM927.2658484280767 227.77348155227725C927.2391760647954 212.283430282746 927.3257849515142 190.1670514985663 928.9513342679204 176.5374586030585C941.5879004300298 178.07620066848818 966.1092627347173 172.42397898880068 977.5421240628423 185.62136668411318C988.992502480811 198.84350413528506 987.8592627347173 219.11176890579287 975.0501807034673 230.99966258255068C962.2409155667485 242.86787242141787 942.1666968167485 239.4324781343085 928.3458655179204 238.91430491653506Z" name="undefined" id="6RJertyWQpMkDreFx" type="complex_path" stroke="#000000" stroke-width="0" stroke-opacity="1" fill="#000000" fill-opacity="1" stroke-linejoin="round" stroke-linecap="round" opacity="1"/><path d="M466.0881747983866 286.91327555877393L481.2155856870585 286.1991031954927L480.917856194871 175.6206425021333L532.4219455503397 278.55649455291456L548.4983920835429 279.73309977752393L548.2005405210429 156.78342326385206L532.2730197690897 156.0068729708833L535.3991489194804 247.34799845916456L488.23972509135535 156.30075724822706L466.0881747983866 156.65813334685987L466.0881747983866 286.91327555877393ZM618.9192905210429 147.58899577361768L566.7602939390116 295.1974247286958L545.4083652280741 294.13010295135206L597.2225742124491 149.06597026092237ZM690.1020297788554 287.51364787322706C671.8302402280741 238.51364787322706 653.6811923765116 184.20078166228956 647.9085483335429 157.3358524630708C631.2017001890116 156.89887126189893 636.8116245054179 156.972861130063 625.1489658140116 157.77414592010206L590.6354770444804 286.7394169161958L607.2892246030741 287.0769413302583L620.9485873960429 241.79028971893018L656.5993442319804 241.40325053435987L671.1449985288554 287.50507243377393ZM636.1977329038554 173.6549442599458C639.8532504819804 187.6375339816255 647.3154697202616 212.56377299529737 653.7441806577616 227.7319706271333C649.8045444272929 227.3391941378755 633.8010654233866 228.95764811736768 622.4125156186991 228.53053935271925Z" name="http://lore-mbp.local:3000/icons/black_kitty_1024x1024.jpg" id="xBnqrpPbPxBgS5zLs" type="complex_path" stroke="#000000" stroke-width="0" stroke-opacity="1" fill="#000000" fill-opacity="1" stroke-linejoin="miter" stroke-linecap="butt" opacity="1"/><g id="DSFT4ppNRSA7QQN59" type="simpleGroup"></g></g></svg>